HIERARCHY
ROOT hip
{
  OFFSET 0 0 0
  CHANNELS 6 Xposition Yposition Zposition Zrotation Yrotation Xrotation
  JOINT abdomen
  {
    OFFSET 0 20.6881 -0.73152
    CHANNELS 3 Zrotation Xrotation Yrotation
    JOINT chest
    {
      OFFSET 0 11.7043 -0.48768
      CHANNELS 3 Zrotation Xrotation Yrotation
      JOINT neck
      {
        OFFSET 0 22.1894 -2.19456
        CHANNELS 3 Zrotation Xrotation Yrotation
        JOINT head
        {
          OFFSET -0.24384 7.07133 1.2192
          CHANNELS 3 Zrotation Xrotation Yrotation
          JOINT leftEye
          {
            OFFSET 4.14528 8.04674 8.04672
            CHANNELS 3 Zrotation Xrotation Yrotation
            End Site
            {
              OFFSET 1 0 0
            }
          }
          JOINT rightEye
          {
            OFFSET -3.6576 8.04674 8.04672
            CHANNELS 3 Zrotation Xrotation Yrotation
            End Site
            {
              OFFSET 1 0 0
            }
          }
        }
      }
      JOINT rCollar
      {
        OFFSET -2.68224 19.2634 -4.8768
        CHANNELS 3 Zrotation Xrotation Yrotation
        JOINT rShldr
        {
          OFFSET -8.77824 -1.95073 1.46304
          CHANNELS 3 Zrotation Xrotation Yrotation
          JOINT rForeArm
          {
            OFFSET -28.1742 -1.7115 0.48768
            CHANNELS 3 Zrotation Xrotation Yrotation
            JOINT rHand
            {
              OFFSET -22.5879 0.773209 7.07136
              CHANNELS 3 Zrotation Xrotation Yrotation
              JOINT rThumb1
              {
                OFFSET -1.2192 -0.487915 3.41376
                CHANNELS 3 Zrotation Xrotation Yrotation
                JOINT rThumb2
                {
                  OFFSET -3.37035 -0.52449 3.41376
                  CHANNELS 3 Zrotation Xrotation Yrotation
                  End Site
                  {
                    OFFSET -1.78271 -1.18214 1.43049
                  }
                }
              }
              JOINT rIndex1
              {
                OFFSET -7.75947 0.938293 5.60832
                CHANNELS 3 Zrotation Xrotation Yrotation
                JOINT rIndex2
                {
                  OFFSET -2.54057 -0.884171 1.56538
                  CHANNELS 3 Zrotation Xrotation Yrotation
                  End Site
                  {
                    OFFSET -1.62519 -0.234802 1.16502
                  }
                }
              }
              JOINT rMid1
              {
                OFFSET -8.24714 1.18213 3.41376
                CHANNELS 3 Zrotation Xrotation Yrotation
                JOINT rMid2
                {
                  OFFSET -3.10165 -0.590103 1.0647
                  CHANNELS 3 Zrotation Xrotation Yrotation
                  End Site
                  {
                    OFFSET -2.48547 -0.328903 0.83742
                  }
                }
              }
              JOINT rRing1
              {
                OFFSET -8.82822 0.546677 1.51678
                CHANNELS 3 Zrotation Xrotation Yrotation
                JOINT rRing2
                {
                  OFFSET -2.60934 -0.819778 -0.0198488
                  CHANNELS 3 Zrotation Xrotation Yrotation
                  End Site
                  {
                    OFFSET -2.33842 -0.294052 0.168128
                  }
                }
              }
              JOINT rPinky1
              {
                OFFSET -8.27202 -0.0477905 -0.4584
                CHANNELS 3 Zrotation Xrotation Yrotation
                JOINT rPinky2
                {
                  OFFSET -1.82734 -0.647385 -0.700984
                  CHANNELS 3 Zrotation Xrotation Yrotation
                  End Site
                  {
                    OFFSET -1.69225 -0.51767 -0.607171
                  }
                }
              }
            }
          }
        }
      }
      JOINT lCollar
      {
        OFFSET 2.68224 19.2634 -4.8768
        CHANNELS 3 Zrotation Xrotation Yrotation
        JOINT lShldr
        {
          OFFSET 8.77824 -1.95073 1.46304
          CHANNELS 3 Zrotation Xrotation Yrotation
          JOINT lForeArm
          {
            OFFSET 28.1742 -1.7115 0.48768
            CHANNELS 3 Zrotation Xrotation Yrotation
            JOINT lHand
            {
              OFFSET 22.5879 0.773209 7.07136
              CHANNELS 3 Zrotation Xrotation Yrotation
              JOINT lThumb1
              {
                OFFSET 1.2192 -0.487915 3.41376
                CHANNELS 3 Zrotation Xrotation Yrotation
                JOINT lThumb2
                {
                  OFFSET 3.37035 -0.52449 3.41376
                  CHANNELS 3 Zrotation Xrotation Yrotation
                  End Site
                  {
                    OFFSET 1.78271 -1.18214 1.43049
                  }
                }
              }
              JOINT lIndex1
              {
                OFFSET 7.75947 0.938293 5.60832
                CHANNELS 3 Zrotation Xrotation Yrotation
                JOINT lIndex2
                {
                  OFFSET 2.54057 -0.884171 1.56538
                  CHANNELS 3 Zrotation Xrotation Yrotation
                  End Site
                  {
                    OFFSET 1.62519 -0.234802 1.16502
                  }
                }
              }
              JOINT lMid1
              {
                OFFSET 8.24714 1.18213 3.41376
                CHANNELS 3 Zrotation Xrotation Yrotation
                JOINT lMid2
                {
                  OFFSET 3.10165 -0.590103 1.0647
                  CHANNELS 3 Zrotation Xrotation Yrotation
                  End Site
                  {
                    OFFSET 2.48547 -0.328903 0.83742
                  }
                }
              }
              JOINT lRing1
              {
                OFFSET 8.82822 0.546677 1.51678
                CHANNELS 3 Zrotation Xrotation Yrotation
                JOINT lRing2
                {
                  OFFSET 2.60934 -0.819778 -0.0198488
                  CHANNELS 3 Zrotation Xrotation Yrotation
                  End Site
                  {
                    OFFSET 2.33842 -0.294052 0.168128
                  }
                }
              }
              JOINT lPinky1
              {
                OFFSET 8.27202 -0.0477905 -0.4584
                CHANNELS 3 Zrotation Xrotation Yrotation
                JOINT lPinky2
                {
                  OFFSET 1.82734 -0.647385 -0.700984
                  CHANNELS 3 Zrotation Xrotation Yrotation
                  End Site
                  {
                    OFFSET 1.69225 -0.51767 -0.607171
                  }
                }
              }
            }
          }
        }
      }
    }
  }
  JOINT rButtock
  {
    OFFSET -8.77824 4.35084 1.2192
    CHANNELS 3 Zrotation Xrotation Yrotation
    JOINT rThigh
    {
      OFFSET 0 -1.70687 -2.19456
      CHANNELS 3 Zrotation Xrotation Yrotation
      JOINT rShin
      {
        OFFSET 0 -36.8199 0.73152
        CHANNELS 3 Zrotation Xrotation Yrotation
        JOINT rFoot
        {
          OFFSET 0.73152 -45.1104 -5.12064
          CHANNELS 3 Zrotation Xrotation Yrotation
          End Site
          {
            OFFSET -1.1221 -3.69964 12.103
          }
        }
      }
    }
  }
  JOINT lButtock
  {
    OFFSET 8.77824 4.35084 1.2192
    CHANNELS 3 Zrotation Xrotation Yrotation
    JOINT lThigh
    {
      OFFSET 0 -1.70687 -2.19456
      CHANNELS 3 Zrotation Xrotation Yrotation
      JOINT lShin
      {
        OFFSET 0 -36.8199 0.73152
        CHANNELS 3 Zrotation Xrotation Yrotation
        JOINT lFoot
        {
          OFFSET -0.73152 -45.1104 -5.12064
          CHANNELS 3 Zrotation Xrotation Yrotation
          End Site
          {
            OFFSET 1.1221 -3.69964 12.103
          }
        }
      }
    }
  }
}
MOTION
Frames:	4
Frame Time:	0.00833333
287.141 81.6083 -37.9645 -532.831 -96.6501 1256.17 -1.72559 8.5976 0.294085 0.117972 0.639335 -0.0210078 -4.74508 7.50172 -5.11848 18.1422 -36.3615 -4.46914 -0.0 0.0 0.0 -0.0 0.0 0.0 2.56556e-14 6.08279e-13 3.21689e-14 73.9818 20.2702 2.20236 -10.6017 -4.51571 18.934 -0.0392835 5.65188 0.796926 -9.0241e-10 -9.41811e-10 1.77684e-09 -1.54944e-09 -1.62719e-09 3.07734e-09 -9.02399e-10 -9.41808e-10 1.77684e-09 7.73091 5.47488 0.417314 -9.02409e-10 -9.41806e-10 1.77685e-09 2.90554 0.965183 0.102902 -9.02403e-10 -9.41803e-10 1.77684e-09 10.2786 0.731801 0.0259123 -9.02411e-10 -9.41803e-10 1.77685e-09 2.22167 -0.733487 -0.20892 2.5471e-14 6.08277e-13 3.17372e-14 -75.4484 25.9045 -5.70627 19.5114 -12.4166 -37.4803 0.374412 -17.1387 2.48392 -6.73146e-10 1.33395e-09 5.74396e-10 -1.17653e-09 2.30317e-09 9.84628e-10 -6.73153e-10 1.33396e-09 5.74419e-10 -7.73091 5.47488 -0.417314 -6.73145e-10 1.33395e-09 5.74389e-10 -2.90554 0.965183 -0.102902 -6.73153e-10 1.33395e-09 5.74399e-10 -10.2786 0.731801 -0.0259123 -6.73142e-10 1.33395e-09 5.74395e-10 -2.22167 -0.733487 0.20892 -2.03217e-16 0.0 -3.88251e-19 -1.21146 -16.7217 -4.42592 -0.270437 38.9554 0.949694 -10.6226 -28.8015 -18.0131 2.03217e-16 0.0 3.88251e-19 5.24903 -23.3775 15.8409 0.337483 41.3344 -0.833086 7.07446 -17.9108 16.63
287.124 81.6482 -38.0275 -533.19 -96.4886 1256.69 -1.38953 8.32842 0.237988 0.198795 0.658846 -0.0262488 -4.54146 7.59632 -5.02153 17.8349 -36.4766 -4.38518 -0.0 0.0 0.0 -0.0 0.0 0.0 2.10427e-14 2.93083e-13 -2.26572e-14 74.3496 19.366 1.98838 -10.4303 -4.40733 18.6106 -0.0434143 5.93887 0.837682 -8.31946e-10 -8.94192e-10 1.62772e-09 -1.42874e-09 -1.5463e-09 2.82026e-09 -8.31938e-10 -8.94186e-10 1.62772e-09 7.73091 5.47488 0.417314 -8.31946e-10 -8.94185e-10 1.62773e-09 2.90554 0.965183 0.102902 -8.31939e-10 -8.94181e-10 1.62772e-09 10.2786 0.731801 0.0259123 -8.31946e-10 -8.94182e-10 1.62773e-09 2.22167 -0.733487 -0.20892 2.08759e-14 2.93078e-13 -2.3045e-14 -76.3634 25.295 -5.2902 18.7708 -11.5433 -35.7547 0.339918 -16.3489 2.36288 -5.31332e-10 8.96943e-10 1.37801e-10 -9.24611e-10 1.54771e-09 2.3151e-10 -5.31336e-10 8.96946e-10 1.37812e-10 -7.73091 5.47488 -0.417314 -5.3133e-10 8.9694e-10 1.37787e-10 -2.90554 0.965183 -0.102902 -5.31336e-10 8.96944e-10 1.37807e-10 -10.2786 0.731801 -0.0259123 -5.31329e-10 8.96943e-10 1.37805e-10 -2.22167 -0.733487 0.20892 -2.03217e-16 0.0 -3.88251e-19 -1.08808 -16.8112 -4.33723 -0.26744 38.7793 0.943524 -10.5472 -28.7351 -17.9191 2.03217e-16 0.0 3.88251e-19 5.22325 -23.5772 15.253 0.341943 41.4134 -0.819726 6.20725 -17.7596 14.6376
287.092 81.6893 -38.0658 -533.268 -96.3136 1256.93 -1.11809 8.05462 0.193415 0.278373 0.675549 -0.0302953 -4.33589 7.67698 -4.92566 17.5286 -36.5385 -4.30795 -0.0 0.0 0.0 -0.0 0.0 0.0 1.81694e-14 1.00737e-13 -4.90998e-14 74.7071 18.4726 1.7731 -10.2643 -4.30357 18.2981 -0.0476043 6.21468 0.876892 -8.06946e-10 -8.58677e-10 1.50405e-09 -1.38633e-09 -1.48583e-09 2.60685e-09 -8.06941e-10 -8.58669e-10 1.50406e-09 7.73091 5.47488 0.417314 -8.06947e-10 -8.58668e-10 1.50406e-09 2.90554 0.965183 0.102902 -8.0694e-10 -8.58663e-10 1.50405e-09 10.2786 0.731801 0.0259123 -8.06947e-10 -8.58666e-10 1.50406e-09 2.22167 -0.733487 -0.20892 1.80106e-14 1.0073e-13 -4.94477e-14 -77.2845 24.5567 -4.82552 18.0032 -10.6902 -34.0275 0.303905 -15.4969 2.23323 -4.51044e-10 6.40184e-10 -1.57771e-10 -7.81258e-10 1.1041e-09 -2.78203e-10 -4.51047e-10 6.40186e-10 -1.57768e-10 -7.73091 5.47488 -0.417314 -4.51042e-10 6.40181e-10 -1.57791e-10 -2.90554 0.965183 -0.102902 -4.51047e-10 6.40186e-10 -1.57764e-10 -10.2786 0.731801 -0.0259123 -4.51041e-10 6.40186e-10 -1.57765e-10 -2.22167 -0.733487 0.20892 -2.03217e-16 0.0 -3.88251e-19 -1.00047 -16.8868 -4.21266 -0.264834 38.6227 0.938239 -10.4854 -28.6994 -17.8341 2.03217e-16 0.0 3.88251e-19 5.09084 -23.7102 14.6508 0.343867 41.4019 -0.805981 5.45673 -17.6825 12.8425
287.045 81.7313 -38.0911 -532.994 -96.132 1256.81 -0.926793 7.77917 0.158486 0.358184 0.684238 -0.0341492 -4.12161 7.74226 -4.82872 17.2187 -36.5362 -4.23675 -0.0 0.0 0.0 -0.0 0.0 0.0 1.93283e-14 1.38485e-13 -3.54835e-14 75.0608 17.5551 1.55277 -10.0986 -4.20175 17.9863 -0.0521082 6.50369 0.918012 -8.66951e-10 -8.28992e-10 1.43183e-09 -1.49025e-09 -1.43467e-09 2.48191e-09 -8.66947e-10 -8.28986e-10 1.43183e-09 7.73091 5.47488 0.417314 -8.66953e-10 -8.28986e-10 1.43184e-09 2.90554 0.965183 0.102902 -8.66945e-10 -8.28981e-10 1.43183e-09 10.2786 0.731801 0.0259123 -8.66953e-10 -8.28984e-10 1.43184e-09 2.22167 -0.733487 -0.20892 1.9155e-14 1.3848e-13 -3.57952e-14 -78.2152 23.6795 -4.30587 17.2152 -9.86866 -32.2862 0.267316 -14.576 2.0942 -4.78485e-10 6.1713e-10 -2.84973e-10 -8.27157e-10 1.06476e-09 -4.97472e-10 -4.78489e-10 6.1713e-10 -2.84971e-10 -7.73091 5.47488 -0.417314 -4.78482e-10 6.17125e-10 -2.84994e-10 -2.90554 0.965183 -0.102902 -4.78489e-10 6.17132e-10 -2.84965e-10 -10.2786 0.731801 -0.0259123 -4.78483e-10 6.17132e-10 -2.84965e-10 -2.22167 -0.733487 0.20892 -2.03217e-16 0.0 -3.88251e-19 -0.953025 -16.9418 -4.03271 -0.262501 38.4826 0.93405 -10.4502 -28.7016 -17.7769 2.03217e-16 0.0 3.88251e-19 4.82666 -23.7645 14.0318 0.342966 41.2868 -0.792583 4.85266 -17.7366 11.3215
